<svg height="300.445" viewBox="0 0 525 300.445" width="525" xmlns="http://www.w3.org/2000/svg" xmlns:xlink="http://www.w3.org/1999/xlink"><clipPath id="a"><path d="m0 0h396.433v272.888h-396.433z"/></clipPath><linearGradient id="b" gradientUnits="objectBoundingBox" x1="-.018" x2="1.024" y1=".12" y2=".884"><stop offset="0" stop-color="#6ec5e7"/><stop offset="1" stop-color="#1ca1f1"/></linearGradient><clipPath id="c"><path d="m0 0h80.538v80.538h-80.538z"/></clipPath><linearGradient id="d" x1="2.075" x2="-.936" xlink:href="#b" y1="1.525" y2="-.435"/><clipPath id="e"><path d="m0 0h47.699v46.913h-47.699z"/></clipPath><linearGradient id="f" x1="-3.98" x2="4.495" xlink:href="#b" y1="-2.908" y2="3.539"/><clipPath id="g"><path d="m0 0h47.695v46.913h-47.695z"/></clipPath><linearGradient id="h" x1="-2.721" x2="1.586" xlink:href="#b" y1="-2.173" y2="1.401"/><linearGradient id="i" gradientUnits="objectBoundingBox" x1="-14.786" x2="5.246" y1="-15.57" y2="5.49"><stop offset="0" stop-color="#1ca1f1"/><stop offset="1" stop-color="#fff"/></linearGradient><linearGradient id="j" x1="-10.145" x2="3.784" xlink:href="#i" y1="-10.677" y2="3.948"/><linearGradient id="k" x1="-21.355" x2="7.48" xlink:href="#i" y1="-22.453" y2="7.831"/><linearGradient id="l" x1="-20.408" x2="21.521" xlink:href="#i" y1="-21.451" y2="22.569"/><linearGradient id="m" x1="-37.893" x2="3.974" xlink:href="#i" y1="-39.921" y2="4.158"/><linearGradient id="n" x1="-12.264" x2="29.666" xlink:href="#i" y1="-12.899" y2="31.121"/><linearGradient id="o" x1="-19.904" x2="22.026" xlink:href="#i" y1="-20.921" y2="23.098"/><linearGradient id="p" x1="-19.17" x2="22.7" xlink:href="#i" y1="-20.18" y2="23.839"/><linearGradient id="q" x1="-41.423" x2=".504" xlink:href="#i" y1="-43.512" y2=".505"/><linearGradient id="r" x1="-41.417" x2=".505" xlink:href="#i" y1="-43.538" y2=".505"/><linearGradient id="s" x1="-41.423" x2=".504" xlink:href="#i" y1="-43.574" y2=".506"/><linearGradient id="t" x1="-5.709" x2="1.817" xlink:href="#i" y1="-9.657" y2="2.654"/><linearGradient id="u" x1="-5.71" x2="1.817" xlink:href="#i" y1="-9.654" y2="2.653"/><linearGradient id="v" x1="-5.71" x2="1.817" xlink:href="#i" y1="-9.654" y2="2.654"/><linearGradient id="w" x1="-7.811" x2="3.009" xlink:href="#i" y1="-13.108" y2="4.608"/><linearGradient id="x" x1="-1.361" x2="6.161" xlink:href="#i" y1="-2.546" y2="9.764"/><linearGradient id="y" x1="-7.468" x2="8.269" xlink:href="#i" y1="-12.54" y2="13.216"/><linearGradient id="z" x1="-9.49" x2="6.247" xlink:href="#i" y1="-15.85" y2="9.906"/><linearGradient id="A" x1="-7.287" x2="8.45" xlink:href="#i" y1="-12.246" y2="13.511"/><linearGradient id="B" x1="-17.442" x2="-1.705" xlink:href="#i" y1="-28.867" y2="-3.111"/><linearGradient id="C" x1="-17.442" x2="-1.705" xlink:href="#i" y1="-28.866" y2="-3.11"/><linearGradient id="D" x1="-17.444" x2="-1.705" xlink:href="#i" y1="-28.871" y2="-3.11"/><linearGradient id="E" x1="-17.448" x2="-1.706" xlink:href="#i" y1="-28.858" y2="-3.109"/><linearGradient id="F" x1="-6.93" x2="6.938" xlink:href="#i" y1="-7.013" y2="7.01"/><linearGradient id="G" x1="-9.914" x2="10.041" xlink:href="#i" y1="-10.037" y2="10.153"/><linearGradient id="H" x1="-13.268" x2=".6" xlink:href="#i" y1="-13.432" y2=".601"/><linearGradient id="I" x1="-13.268" x2=".6" xlink:href="#i" y1="-13.423" y2=".6"/><linearGradient id="J" x1="-13.268" x2=".599" xlink:href="#i" y1="-13.423" y2=".601"/><linearGradient id="K" x1="-13.268" x2=".6" xlink:href="#i" y1="-13.419" y2=".601"/><linearGradient id="L" x1="-21.951" x2="7.048" xlink:href="#i" y1="-22.203" y2="7.122"/><linearGradient id="M" x1="-19.988" x2="9.006" xlink:href="#i" y1="-20.219" y2="9.103"/><linearGradient id="N" x1="-20.683" x2="8.313" xlink:href="#i" y1="-20.921" y2="8.4"/><linearGradient id="O" x1="-4.558" x2="24.439" xlink:href="#i" y1="-4.622" y2="24.746"/><linearGradient id="P" x1="0" x2="1" xlink:href="#i" y1=".5" y2=".5"/><filter id="Q" filterUnits="userSpaceOnUse" height="69" width="180" x="40.109" y="0"><feOffset dy="1"/><feGaussianBlur result="blur" stdDeviation="1"/><feFlood flood-opacity=".612"/><feComposite in2="blur" operator="in"/><feComposite in="SourceGraphic"/></filter><filter id="R" filterUnits="userSpaceOnUse" height="133.083" width="525" x="0" y="90.519"><feOffset dy="3"/><feGaussianBlur result="blur-2" stdDeviation="7.5"/><feFlood flood-opacity=".502"/><feComposite in2="blur-2" operator="in"/><feComposite in="SourceGraphic"/></filter><g transform="translate(76.656 18.957)"><g clip-path="url(#a)"><path d="m0 0h396.433v272.888h-396.433z" fill="none"/></g><path d="m252.131 114.008c-23.454-11.729-40.831-61.078-110.453-61.078-68.339 0-123.738 52.2-123.738 116.591s49.46 116.455 117.798 116.455c42.175 0 49.512-11.513 75.432-11.513 29.081 0 36.884 26.736 89.275 26.736 51.082 0 90.515-42.794 89.157-95.545-2.758-107.123-115.241-80.535-137.47-91.646z" fill="url(#b)" transform="translate(-11.135 -44.581)"/></g><g transform="translate(304.975 7.228)"><g clip-path="url(#c)"><path d="m0 0h80.538v80.538h-80.538z" fill="none"/></g><path d="m674.985 48.907a28.147 28.147 0 1 1 -28.148-28.147 28.147 28.147 0 0 1 28.148 28.147z" fill="url(#d)" transform="translate(-612.313 -12.885)"/></g><g transform="translate(249.458 253.532)"><g clip-path="url(#e)"><path d="m0 0h47.695v46.913h-47.695z" fill="none"/></g><path d="m496.518 681.8a11.629 11.629 0 1 1 -11.627-11.631 11.629 11.629 0 0 1 11.627 11.631z" fill="url(#f)" transform="translate(-466.534 -662.249)"/></g><g transform="translate(380.04 48.671)"><g clip-path="url(#g)"><path d="m0 0h47.695v46.913h-47.695z" fill="none"/></g><path d="m840.381 141.741a11.631 11.631 0 1 1 -11.631-11.631 11.627 11.627 0 0 1 11.631 11.631z" fill="url(#h)" transform="translate(-810.535 -122.197)"/></g><path d="m404.675 274.07c-.224-.046-1.608-.372-2.018-1.036a10.811 10.811 0 0 1 -.743-1.8v-.023a.014.014 0 0 0 0 .011s0 0 0-.008v.015a10.889 10.889 0 0 1 -.747 1.8c-.41.664-1.8.986-2.018 1.036h.008c.224.049 1.608.372 2.018 1.036a10.814 10.814 0 0 1 .744 1.8v.023s0-.008 0-.008a0 0 0 0 1 0 0v-.011a10.832 10.832 0 0 1 .744-1.806c.41-.664 1.8-.986 2.022-1.036h-.008z" fill="url(#i)" transform="translate(-171.073 -161.1)"/><path d="m515.822 169.17c-.322-.068-2.314-.535-2.906-1.491a15.646 15.646 0 0 1 -1.07-2.595v-.034s0 .011-.008.015v.011a16.2 16.2 0 0 1 -1.073 2.595c-.592.956-2.591 1.423-2.906 1.491h.008c.319.068 2.314.535 2.906 1.491a15.64 15.64 0 0 1 1.07 2.595v.034s0-.015.008-.019a.014.014 0 0 0 0 .011v-.019a15.774 15.774 0 0 1 1.07-2.595c.592-.956 2.591-1.423 2.906-1.491h-.008z" fill="url(#j)" transform="translate(-238.551 -95.211)"/><path d="m476.747 207.938c-.156-.03-1.119-.258-1.4-.717a7.9 7.9 0 0 1 -.52-1.256v-.008.008a7.474 7.474 0 0 1 -.516 1.256c-.285.459-1.252.687-1.4.721.156.03 1.115.258 1.4.717a7.477 7.477 0 0 1 .516 1.256v.015a.013.013 0 0 0 0-.008 7.9 7.9 0 0 1 .52-1.256c.285-.459 1.252-.687 1.4-.721z" fill="url(#k)" transform="translate(-216.852 -120.596)"/><path d="m429.414 172.526c-.106-.023-.766-.175-.964-.493a5.6 5.6 0 0 1 -.357-.861v-.011a0 0 0 0 1 0 0 4.808 4.808 0 0 1 -.357.861c-.193.319-.857.474-.964.5.106.023.766.178.964.493a4.941 4.941 0 0 1 .357.865v.011s0 0 0-.008a4.926 4.926 0 0 1 .357-.861c.193-.319.861-.47.964-.5z" fill="url(#l)" transform="translate(-188.221 -99.003)"/><path d="m471.378 263.606c-.106-.023-.77-.178-.967-.493a5.617 5.617 0 0 1 -.357-.865 5.242 5.242 0 0 1 -.357.861c-.2.319-.861.474-.967.5.106.023.77.178.967.493a5.184 5.184 0 0 1 .353.865v.008a5.451 5.451 0 0 1 .357-.861c.2-.319.861-.474.967-.5z" fill="url(#m)" transform="translate(-214.264 -155.533)"/><path d="m389.634 173.659c-.106-.023-.77-.178-.964-.493a4.942 4.942 0 0 1 -.357-.865v-.011a.013.013 0 0 1 0 .008 4.924 4.924 0 0 1 -.357.861c-.193.319-.861.474-.964.5.106.023.77.178.967.493a5.762 5.762 0 0 1 .357.861 5.453 5.453 0 0 1 .357-.861c.2-.319.861-.474.967-.5z" fill="url(#n)" transform="translate(-163.532 -99.705)"/><path d="m378.414 215.819c-.106-.023-.77-.178-.964-.5a4.808 4.808 0 0 1 -.357-.861v-.011a.013.013 0 0 0 0 .008 4.94 4.94 0 0 1 -.357.865c-.193.315-.861.47-.964.493.106.023.77.178.967.5a5.453 5.453 0 0 1 .357.861 5.62 5.62 0 0 1 .357-.865c.2-.315.861-.47.967-.493z" fill="url(#o)" transform="translate(-156.568 -125.871)"/><path d="m471.378 124.876c-.106-.023-.77-.174-.967-.493a5.6 5.6 0 0 1 -.357-.861v-.008a5.112 5.112 0 0 1 -.357.861c-.2.319-.861.474-.967.5.106.023.77.178.967.5a5.041 5.041 0 0 1 .353.861v.011s0 0 0-.008a5.764 5.764 0 0 1 .357-.861c.2-.319.861-.47.967-.5z" fill="url(#p)" transform="translate(-214.264 -69.429)"/><path d="m527.474 237.579c-.106-.023-.766-.178-.964-.493a5.616 5.616 0 0 1 -.357-.865 0 0 0 0 1 0 0v.008a5.17 5.17 0 0 1 -.353.861c-.2.319-.861.474-.967.5.106.023.77.178.964.493a5.385 5.385 0 0 1 .357.861v.008a0 0 0 0 1 0 0v-.008a4.807 4.807 0 0 1 .357-.861c.193-.319.861-.474.964-.5z" fill="url(#q)" transform="translate(-249.083 -139.377)"/><path d="m598.554 287.649c-.106-.023-.77-.178-.967-.493a5.188 5.188 0 0 1 -.353-.865v-.011s0 0 0 .008a5.444 5.444 0 0 1 -.357.861c-.2.319-.861.474-.964.5.106.023.77.178.967.493a5.3 5.3 0 0 1 .353.861v.011a0 0 0 0 0 0 0 5.114 5.114 0 0 1 .357-.861c.2-.319.861-.474.967-.5z" fill="url(#q)" transform="translate(-293.199 -170.453)"/><path d="m706.094 291.711c-.14-.027-1.024-.235-1.286-.656a7.374 7.374 0 0 1 -.474-1.149v-.006a0 0 0 0 0 0 0v.008a6.687 6.687 0 0 1 -.474 1.149c-.262.421-1.146.63-1.286.66.144.03 1.024.235 1.286.656a6.691 6.691 0 0 1 .474 1.149v.015a.013.013 0 0 0 0-.008 7.367 7.367 0 0 1 .474-1.149c.262-.421 1.149-.626 1.286-.66z" fill="url(#r)" transform="translate(-359.399 -172.694)"/><path d="m723.254 358.506c-.106-.023-.77-.178-.964-.493a5.05 5.05 0 0 1 -.357-.861v-.008a0 0 0 0 1 0 0v.008a4.812 4.812 0 0 1 -.357.861c-.193.319-.861.474-.964.5.106.023.766.178.964.493a5.621 5.621 0 0 1 .357.865 0 0 0 0 1 0 0v-.008a5.17 5.17 0 0 1 .353-.861c.2-.319.861-.47.967-.5z" fill="url(#s)" transform="translate(-370.595 -214.433)"/><path d="m96.066 382.051c-.311-.068-2.272-.527-2.853-1.468a15.573 15.573 0 0 1 -1.055-2.553v-.03s0 .011 0 .015a.013.013 0 0 0 0-.008v.019a15.693 15.693 0 0 1 -1.055 2.549c-.58.941-2.549 1.4-2.856 1.468h.008c.315.068 2.276.527 2.856 1.464a15.5 15.5 0 0 1 1.055 2.553v.034s0-.015 0-.019a.014.014 0 0 1 0 .011v-.019a15.708 15.708 0 0 1 1.055-2.553c.58-.941 2.549-1.4 2.856-1.464h-.011z" fill="url(#t)" transform="translate(21.889 -227.38)"/><path d="m188.656 143.481c-.315-.064-2.272-.523-2.853-1.464a15.709 15.709 0 0 1 -1.055-2.553v-.034a.165.165 0 0 1 0 .019s0-.008 0-.011v.019a15.711 15.711 0 0 1 -1.055 2.553c-.58.941-2.549 1.4-2.856 1.468h.008c.315.064 2.276.523 2.856 1.464a15.572 15.572 0 0 1 1.055 2.553v.03s0-.011 0-.015 0 .008 0 .008v-.018a15.489 15.489 0 0 1 1.055-2.549c.58-.941 2.549-1.4 2.856-1.468z" fill="url(#t)" transform="translate(-35.578 -79.31)"/><path d="m244.731 198.159c-.224-.049-1.616-.376-2.029-1.043a11.274 11.274 0 0 1 -.747-1.813v-.023a.014.014 0 0 0 0 .011v.008a11.5 11.5 0 0 1 -.751 1.813c-.413.668-1.813.994-2.029 1.043.224.046 1.616.376 2.029 1.039a10.626 10.626 0 0 1 .747 1.817v.023s0-.011.008-.015a10.875 10.875 0 0 1 .751-1.813c.413-.668 1.809-.994 2.029-1.043z" fill="url(#u)" transform="translate(-71.787 -113.974)"/><path d="m315.321 111.219c-.224-.046-1.616-.372-2.029-1.039a11.421 11.421 0 0 1 -.747-1.813v-.027a.038.038 0 0 1 0 .011v.008a11.353 11.353 0 0 1 -.751 1.813c-.413.671-1.813.994-2.029 1.043.224.049 1.616.376 2.03 1.039a11.027 11.027 0 0 1 .751 1.817v.023a.014.014 0 0 1 0-.011v-.008a11.145 11.145 0 0 1 .751-1.813c.414-.668 1.81-.994 2.029-1.043z" fill="url(#v)" transform="translate(-115.599 -60.014)"/><path d="m156.944 335.665c-.22-.046-1.582-.364-1.988-1.017a10.941 10.941 0 0 1 -.728-1.775v-.023s0 .008 0 .011a.013.013 0 0 0 0-.008v.015a10.663 10.663 0 0 1 -.732 1.772c-.406.656-1.772.975-1.988 1.02h.008c.216.046 1.582.364 1.984 1.017a10.678 10.678 0 0 1 .732 1.775v.023a.014.014 0 0 0 0-.011s0 0 0 .008v-.015a10.663 10.663 0 0 1 .732-1.772c.4-.656 1.772-.975 1.988-1.02z" fill="url(#w)" transform="translate(-17.374 -199.358)"/><path d="m75.4 264.061c-.315-.068-2.276-.527-2.856-1.464a16.209 16.209 0 0 1 -1.055-2.553v-.034s0 .011 0 .015v.011a15.581 15.581 0 0 1 -1.058 2.553c-.58.941-2.545 1.4-2.856 1.464h.008c.315.068 2.276.527 2.856 1.464a15.174 15.174 0 0 1 1.055 2.553v.034a.029.029 0 0 1 .008-.015.012.012 0 0 0 0 .008v-.019a15.429 15.429 0 0 1 1.051-2.553c.58-.937 2.549-1.4 2.86-1.464z" fill="url(#x)" transform="translate(34.718 -154.149)"/><path d="m100.534 311.775c-.152-.03-1.089-.25-1.366-.7a7.639 7.639 0 0 1 -.5-1.218v-.015a.012.012 0 0 1 0 .008 7.3 7.3 0 0 1 -.5 1.218c-.277.451-1.218.671-1.366.7.152.034 1.089.254 1.366.7a7.184 7.184 0 0 1 .5 1.221v.015s0-.008 0-.008v-.008a7.3 7.3 0 0 1 .5-1.218c.277-.451 1.218-.668 1.366-.7z" fill="url(#y)" transform="translate(16.582 -185.076)"/><path d="m69.13 359.335c-.148-.03-1.085-.25-1.366-.7a7.287 7.287 0 0 1 -.5-1.218v-.017a.013.013 0 0 0 0 .008 7.5 7.5 0 0 1 -.5 1.218c-.277.451-1.218.671-1.366.7.148.034 1.089.254 1.366.7a7.514 7.514 0 0 1 .5 1.221v.008a0 0 0 0 1 0 0v-.008a7.182 7.182 0 0 1 .5-1.221c.277-.451 1.218-.668 1.366-.7z" fill="url(#z)" transform="translate(36.071 -214.595)"/><path d="m155.694 276.545c-.152-.03-1.085-.25-1.366-.7a7.435 7.435 0 0 1 -.5-1.221v-.015s0 0 0 .008a7.873 7.873 0 0 1 -.5 1.221c-.281.448-1.221.668-1.369.7h.008c.148.034 1.085.254 1.366.7a7.437 7.437 0 0 1 .5 1.221v.015s0-.008 0-.008a0 0 0 0 0 0 0v-.008a7.437 7.437 0 0 1 .5-1.221c.277-.448 1.221-.668 1.366-.7z" fill="url(#A)" transform="translate(-17.653 -163.211)"/><path d="m144.974 399.6c-.152-.034-1.089-.25-1.366-.7a7.3 7.3 0 0 1 -.5-1.218v-.015a.013.013 0 0 0 0 .008 7.3 7.3 0 0 1 -.5 1.218c-.277.451-1.218.671-1.366.7.152.034 1.089.254 1.366.7a7.184 7.184 0 0 1 .5 1.221v.015s0-.008 0-.008v-.008a7.3 7.3 0 0 1 .5-1.218c.277-.451 1.218-.668 1.366-.7z" fill="url(#B)" transform="translate(-11 -239.589)"/><path d="m440.094 558.1c-.152-.034-1.089-.254-1.366-.7a7.513 7.513 0 0 1 -.5-1.221v-.015s0 .008 0 .008v.008a7.3 7.3 0 0 1 -.5 1.218c-.277.451-1.218.668-1.366.7.152.03 1.089.25 1.366.7a7.168 7.168 0 0 1 .5 1.218v.015a.012.012 0 0 1 0-.008 7.292 7.292 0 0 1 .5-1.218c.277-.451 1.218-.671 1.366-.7z" fill="url(#C)" transform="translate(-194.168 -337.956)"/><path d="m264.67 610.119c-.171-.038-1.229-.284-1.544-.793a8.222 8.222 0 0 1 -.569-1.377v-.011.011a8.355 8.355 0 0 1 -.569 1.377c-.315.508-1.377.755-1.544.793h.008c.167.034 1.225.284 1.54.793a8.219 8.219 0 0 1 .569 1.377v.015a.013.013 0 0 0 0-.008 8.226 8.226 0 0 1 .569-1.377c.315-.508 1.377-.759 1.544-.793z" fill="url(#D)" transform="translate(-84.988 -370.088)"/><path d="m315.427 632.042c-.159-.034-1.134-.262-1.426-.732a7.782 7.782 0 0 1 -.527-1.275 7.775 7.775 0 0 1 -.527 1.275c-.292.47-1.275.7-1.426.732.156.034 1.134.262 1.426.732a7.382 7.382 0 0 1 .523 1.275v.015a.013.013 0 0 1 0-.008 7.781 7.781 0 0 1 .527-1.275c.292-.47 1.271-.7 1.426-.732z" fill="url(#E)" transform="translate(-116.691 -383.798)"/><path d="m666.788 564.033c.209.034 1.51.277 1.919.876a10.312 10.312 0 0 1 .77 1.643v.023a.014.014 0 0 1 0-.011 10.508 10.508 0 0 1 .615-1.707c.353-.637 1.631-1 1.832-1.051-.209-.034-1.51-.277-1.919-.876a10.3 10.3 0 0 1 -.77-1.643v-.023a.014.014 0 0 1 0 .011 0 0 0 0 0 0 0v.011a10.348 10.348 0 0 1 -.618 1.707c-.349.634-1.631.994-1.832 1.047z" fill="url(#F)" transform="translate(-337.186 -341.121)"/><path d="m630.848 598.9c.144.027 1.047.193 1.331.611a7.427 7.427 0 0 1 .535 1.142v.008a0 0 0 0 0 0 0v-.008a6.985 6.985 0 0 1 .429-1.187c.243-.44 1.13-.69 1.271-.728-.144-.023-1.047-.193-1.331-.607a6.945 6.945 0 0 1 -.535-1.146v-.011a0 0 0 0 0 0 0v.008a7.2 7.2 0 0 1 -.429 1.183c-.247.444-1.134.694-1.275.732z" fill="url(#G)" transform="translate(-314.879 -363.291)"/><path d="m683.9 640.873c.209.034 1.51.277 1.919.872a10.386 10.386 0 0 1 .766 1.646v.019s0-.008 0-.008v-.011a10.222 10.222 0 0 1 .618-1.707c.353-.637 1.631-.994 1.832-1.047h-.008c-.209-.038-1.51-.281-1.919-.876a10.232 10.232 0 0 1 -.766-1.646v-.015s0 .008 0 .008a0 0 0 0 1 0 0v.011a9.828 9.828 0 0 1 -.615 1.707c-.353.633-1.631.994-1.832 1.051z" fill="url(#H)" transform="translate(-347.805 -388.812)"/><path d="m865.878 580.369c.209.034 1.51.277 1.919.876a10.086 10.086 0 0 1 .766 1.646v.019-.01a.013.013 0 0 0 0 .008v-.008a9.825 9.825 0 0 1 .615-1.707c.353-.633 1.631-1 1.832-1.051h-.008c-.209-.034-1.506-.277-1.919-.872a10.373 10.373 0 0 1 -.766-1.646v-.024.008a0 0 0 0 0 0 0v.011a9.825 9.825 0 0 1 -.615 1.707c-.353.633-1.631.994-1.832 1.047z" fill="url(#H)" transform="translate(-460.752 -351.263)"/><path d="m847.788 640.273c.174.03 1.271.235 1.616.74a8.289 8.289 0 0 1 .645 1.385v.019a.014.014 0 0 1 0-.011 8.369 8.369 0 0 1 .52-1.438c.3-.535 1.373-.838 1.54-.884-.178-.03-1.271-.235-1.616-.736a8.524 8.524 0 0 1 -.649-1.388v-.015a.012.012 0 0 1 0 .008 8.372 8.372 0 0 1 -.52 1.438c-.3.535-1.373.838-1.544.884z" fill="url(#I)" transform="translate(-449.525 -388.713)"/><path d="m866.948 346.553c.175.03 1.271.235 1.616.74a8.292 8.292 0 0 1 .645 1.385v.019a.014.014 0 0 0 0-.011 9.087 9.087 0 0 1 .52-1.438c.3-.535 1.373-.838 1.544-.884-.178-.03-1.275-.235-1.616-.736a8.333 8.333 0 0 1 -.649-1.385v-.019a.013.013 0 0 0 0 .008 0 0 0 0 0 0 0v.011a8.093 8.093 0 0 1 -.516 1.438c-.3.535-1.373.835-1.544.88z" fill="url(#J)" transform="translate(-461.416 -206.414)"/><path d="m942.138 432.93c.235.038 1.7.311 2.166.986a11.787 11.787 0 0 1 .865 1.859v.023s0-.011.008-.015a11.284 11.284 0 0 1 .694-1.927c.4-.717 1.84-1.123 2.067-1.184h-.008c-.235-.038-1.7-.311-2.166-.986a11.589 11.589 0 0 1 -.865-1.855v-.027.015a.012.012 0 0 1 0-.008v.015a11.26 11.26 0 0 1 -.694 1.923c-.4.717-1.84 1.123-2.067 1.184z" fill="url(#K)" transform="translate(-508.084 -259.53)"/><path d="m670.464 614.738a1.662 1.662 0 0 1 .918.417 5.12 5.12 0 0 1 .368.785v.008a5.074 5.074 0 0 1 .3-.816c.171-.3.778-.478.876-.5-.1-.019-.721-.133-.918-.421a4.956 4.956 0 0 1 -.368-.785 5.069 5.069 0 0 1 -.3.816c-.167.3-.778.474-.876.5z" fill="url(#L)" transform="translate(-339.47 -373.488)"/><path d="m689.654 582.574c.1.019.721.137.918.421a4.579 4.579 0 0 1 .364.785v.011-.011a5.2 5.2 0 0 1 .3-.816c.167-.3.778-.474.876-.5a1.662 1.662 0 0 1 -.918-.417 4.965 4.965 0 0 1 -.368-.785v-.008a5.054 5.054 0 0 1 -.3.816c-.167.3-.781.478-.876.5z" fill="url(#M)" transform="translate(-351.38 -353.528)"/><path d="m635.308 639.518c.1.015.721.133.914.417a5.12 5.12 0 0 1 .368.785v.008a4.979 4.979 0 0 1 .292-.816c.171-.3.781-.478.876-.5-.1-.019-.725-.133-.918-.421a4.647 4.647 0 0 1 -.368-.785v-.011s0 0 0 .008a4.626 4.626 0 0 1 -.3.819c-.167.3-.778.474-.876.5h.008z" fill="url(#N)" transform="translate(-317.648 -388.868)"/><path d="m585.514 573.784a1.661 1.661 0 0 1 .918.417 4.891 4.891 0 0 1 .364.789v.01a4.716 4.716 0 0 1 .3-.816c.167-.3.778-.474.876-.5a1.65 1.65 0 0 1 -.918-.417 4.977 4.977 0 0 1 -.368-.789s0 0 0 0v.008a4.643 4.643 0 0 1 -.292.816c-.171.3-.781.474-.876.5z" fill="url(#O)" transform="translate(-286.745 -348.073)"/><g fill="url(#P)"><path d="m262.847 163.893-25.537-28.3 26.425 27.3s1.764 1.68 1.111 2.329c-.52.52-2-1.324-2-1.324z" transform="translate(-70.632 -76.927)"/><path d="m333.746 579.007-16.646-18.447 17.226 17.795s1.149 1.093.721 1.517c-.338.338-1.301-.865-1.301-.865z" transform="translate(-120.154 -340.687)"/><path d="m761.866 567.594-23.166-25.674 23.974 24.763s1.6 1.525 1.009 2.113c-.474.475-1.817-1.202-1.817-1.202z" transform="translate(-381.823 -329.118)"/><path d="m909.982 568.781-13.372-14.821 13.838 14.3s.926.876.584 1.218c-.272.27-1.05-.697-1.05-.697z" transform="translate(-479.831 -336.591)"/><path d="m311.362 329.961-13.372-14.821 13.838 14.294s.926.88.584 1.221c-.272.273-1.05-.694-1.05-.694z" transform="translate(-108.294 -188.366)"/></g><g filter="url(#Q)"><text fill="#333" font-family="Poppins-Regular, Poppins" font-size="45" transform="translate(43.11 49)"><tspan x="0" y="0">oops !!!</tspan></text></g><g filter="url(#R)" transform="translate(0 -.001)"><path d="m6.071 115.717c24.067 0 45.366-5.022 72.9-16.234 18.063-7.353 29.523-11.462 45.909-18.54 10.241-4.424 28.606-11.745 32.606-16.4 18.479-21.484 24.686-40.446 56.932-30.4 18.388 5.728 74.668-17.709 102.474.641 21.47 33.752 20.318 35.634 49.111 64.474 9.52 9.535 72.554 12.631 120.065 16.4-135.21.018-344.789.036-480 .053z" fill="#333" fill-rule="evenodd" transform="translate(16.43 82.38)"/></g><path d="m51.439 114.8s66.084-13.724 81.741-20.029 45.344-20.945 52.054-31.112 19.928-28.468 31.721-29.078 24.807 5.693 30.094 8.133 20.946 6.811 33.147 3.354 34.364-10.369 42.5-9.047 14.741 2.54 22.774 14.333 20.944 33.957 24.605 37.109 6.425 9.761 17.852 11.537h.009a8.048 8.048 0 0 1 -.877-.743c-28.793-28.84-27.642-30.721-49.112-64.474-27.806-18.351-84.086 5.086-102.474-.641-32.246-10.045-38.453 8.918-56.932 30.4-4 4.651-22.365 11.972-32.606 16.4-16.386 7.078-27.845 11.186-45.909 18.54-22.726 9.254-41.2 14.29-60.5 15.767l11.907-.449z" fill="#2da9ef" fill-rule="evenodd" stroke="#2da9ef" stroke-miterlimit="22.926" stroke-width="1.757" transform="translate(-4.624 82.385)"/><circle cx="218.995" cy="151.592" fill="#fff" r="27.36"/><circle cx="312.09" cy="151.592" fill="#fff" r="27.36"/><circle cx="215.797" cy="151.947" fill="#333" r="7.817"/><circle cx="308.892" cy="151.947" fill="#333" r="7.817"/></svg>